<svg xmlns="http://www.w3.org/2000/svg" width="600" height="634.151"><path d="M295.143 6.35c-23.96.395-44.685 7.847-80.716 22.05-51.29 17.885-76.79 13.14-124.91-6.51L8.316 104.259 30.267 128.2c43.477 47.465 45.917 108.477 7.965 197.32-29.274 68.53-31.253 132.813-5.293 172.067 25.33 38.302 73.875 62.606 140.256 70.176 66.422 9.506 78.572 18.099 126.804 58.473 48.232-40.374 60.333-48.967 126.757-58.473 66.381-7.57 114.926-31.874 140.256-70.176 25.96-39.254 24.03-103.537-5.245-172.068-37.952-88.842-35.512-149.854 7.965-197.32l21.951-23.941-81.249-82.367c-48.12 19.648-73.572 24.394-124.862 6.508C347.14 13.25 326.1 5.764 300 6.35a123.43 123.43 0 0 0-4.856 0z" fill="none" stroke="#000" stroke-width="10.606"/><path d="M295.143 6.334c-23.96.395-44.685 7.847-80.716 22.05-51.29 17.886-76.79 13.141-124.91-6.509L8.316 104.242l21.951 23.942c37.331 40.756 44.385 91.56 21.611 161.335H548.12c-22.772-69.776-15.72-120.577 21.611-161.335l21.952-23.942-81.25-82.367c-48.119 19.65-73.572 24.395-124.861 6.509-38.431-15.15-59.47-22.635-85.572-22.05a120.406 120.406 0 0 0-4.856 0z" fill="none" stroke="#000" stroke-width="10.606"/><path d="M300 115.584l39.173 120.55 126.755.005-102.544 74.508 39.165 120.552L300 356.7l-102.55 74.5 39.166-120.552-102.544-74.508 126.755-.005z" fill-rule="evenodd"/></svg>